<?xml version="1.0" encoding="utf-8"?>
<!-- Generator: Adobe Illustrator 25.4.0, SVG Export Plug-In . SVG Version: 6.00 Build 0)  -->
<svg version="1.1" id="레이어_1" xmlns="http://www.w3.org/2000/svg" xmlns:xlink="http://www.w3.org/1999/xlink" x="0px"
	 y="0px" viewBox="0 0 312.8 62.3" style="enable-background:new 0 0 312.8 62.3;" xml:space="preserve">
<style type="text/css">
	.st0{fill:#FFFFFF;}
	.st1{fill:#022CA4;}
	.st2{fill:#0652DB;}
	.st3{fill:#18B0DF;}
</style>
<g>
	<g>
		<path class="st0" d="M161.2,11.3c-11.9,0-21.6,9.7-21.6,21.6s9.7,21.6,21.6,21.6c5.7,0,10.9-2.2,14.8-5.8v5.8h6.8V32.9
			C182.8,21,173.1,11.3,161.2,11.3z M161.2,47.7c-8.1,0-14.8-6.6-14.8-14.8c0-8.1,6.6-14.8,14.8-14.8c8.1,0,14.8,6.6,14.8,14.8
			S169.3,47.7,161.2,47.7z"/>
		<path class="st0" d="M205.9,46.4c-0.1,0.3-0.5,0.3-0.6,0l-11.3-35.1h-6.8l12.6,38.9c0.8,2.6,3.2,4.3,5.9,4.3l0,0
			c2.7,0,5.1-1.7,5.9-4.3L224,11.3h-6.8L205.9,46.4z"/>
		<path class="st0" d="M247.2,46.4c-0.1,0.3-0.5,0.3-0.6,0l-11.3-35.1h-6.8L241,50.2c0.8,2.6,3.2,4.3,5.9,4.3l0,0
			c2.7,0,5.1-1.7,5.9-4.3l12.6-38.9h-6.8L247.2,46.4z"/>
		<path class="st0" d="M118,46.4c-0.1,0.3-0.5,0.3-0.6,0l-11.3-35.1h0h-6.8h0L87.9,46.4c-0.1,0.3-0.5,0.3-0.6,0L76,11.3h-6.8
			l12.6,38.9c0.8,2.6,3.2,4.3,5.9,4.3l0,0c2.7,0,5.1-1.7,5.9-4.3l8.9-27.4c0.1-0.3,0.5-0.3,0.6,0l8.9,27.4c0.8,2.6,3.2,4.3,5.9,4.3
			l0,0c2.7,0,5.1-1.7,5.9-4.3l12.6-38.9h-6.8L118,46.4z"/>
		<path class="st0" d="M312.8,32.9c0-11.9-9.7-21.6-21.6-21.6c-11.9,0-21.6,9.7-21.6,21.6s9.7,21.6,21.6,21.6
			c8.7,0,16.2-5.1,19.6-12.5h-8c-2.7,3.5-6.9,5.7-11.6,5.7c-7,0-12.8-4.8-14.3-11.3h35.6C312.8,35.2,312.8,34.1,312.8,32.9z
			 M276.9,29.5c1.5-6.5,7.4-11.3,14.3-11.3c7,0,12.8,4.8,14.3,11.3H276.9z"/>
	</g>
	<g>
		<path class="st1" d="M45.7,25L9.1,1C5.2-1.6,0,1.2,0,5.9v25.3v17.2v7.9c0,4.7,5.2,7.5,9.1,4.9l11.6-7.6l19.7-12.9l5.3-3.5
			C50.2,34.5,50.2,27.9,45.7,25z"/>
		<path class="st2" d="M34.4,41.7c-7,0-10.5-2.7-14.1-5.5c-3.5-2.8-7.2-5.6-14.5-5.6c-2.3,0-4.2,0.3-5.8,0.8v17.3v7.9
			c0,4.7,5.2,7.5,9.1,4.9l11.6-7.6l19.7-12.9C38.7,41.4,36.7,41.7,34.4,41.7z"/>
		<path class="st3" d="M5.8,47.8c-2.3,0-4.2,0.3-5.8,0.8v7.9c0,4.7,5.2,7.5,9.1,4.9l11.6-7.6c-0.1-0.1-0.3-0.2-0.4-0.3
			C16.7,50.6,13.1,47.8,5.8,47.8z"/>
	</g>
</g>
</svg>
